<svg xmlns="http://www.w3.org/2000/svg" viewBox="0 0 140 170"><g stroke="#1B1A16" stroke-linejoin="round"><circle cx="70" cy="92" r="27" fill="#C9DA5A" stroke-width="3"/><path d="M50 75q16 17 0 34M90 75Q74 92 90 109" fill="none" stroke="#EFE6D0" stroke-width="3.5"/><path d="m65.5 55h9l-3 85-1.5 8-1.5-8z" fill="#EFE6D0" stroke-width="2.5"/><path d="m67 49-26 12 2.5 6L68 56zm6 0 26 12-2.5 6L72 56z" fill="#D9CCAE" stroke-width="2.5"/><circle cx="41" cy="64" r="4.5" fill="#C98A4B" stroke-width="2.5"/><circle cx="99" cy="64" r="4.5" fill="#C98A4B" stroke-width="2.5"/><rect x="66" y="18" width="8" height="33" rx="2" fill="#8C5426" stroke-width="2.5"/><circle cx="70" cy="12" r="8.5" fill="#C98A4B" stroke-width="2.5"/><path d="M18 168q4-20 26-27 26-8 52 0 22 7 26 27z" fill="#A0442C" stroke-width="3"/><path d="M46 143q24-7 48 0" fill="none" stroke="#C98A4B" stroke-width="3"/></g></svg>
